<?xml version="1.0"?> <svg xmlns="http://www.w3.org/2000/svg" width="259" height="103" viewBox="0 0 259 103" fill="none"><g clip-path="url(#clip0_12342_122)"><path d="M99.5996 5.1V102.2L161 97.1V0L99.5996 5.1ZM132.4 21.3C132.4 20.1 132.8 19.1 133.6 18.3C134.4 17.5 135.9 17.1 137.9 17.1C139.9 17.1 141.4 17.5 142.1 18.3C142.9 19.1 143.3 20.1 143.3 21.3V23.1C143.3 24.3 142.9 25.3 142.1 26.2C141.3 27 139.9 27.4 137.9 27.4C135.9 27.4 134.4 27 133.6 26.2C132.8 25.3 132.4 24.3 132.4 23.1V21.3ZM117.5 21.3C117.5 20.1 117.9 19.1 118.7 18.3C119.5 17.5 121 17.1 123 17.1C125 17.1 126.5 17.5 127.3 18.3C128.1 19.1 128.5 20.1 128.5 21.3V23.1C128.5 24.3 128.1 25.3 127.3 26.2C126.5 27 125 27.4 123 27.4C121 27.4 119.5 27 118.7 26.2C117.9 25.3 117.5 24.3 117.5 23.1V21.3ZM145.7 40H125.5V50.9H145V59.3H125.5V70.8H145.7V79.2H115.3V31.7H145.7V40Z" fill="#5C76FF"></path><path d="M18.8 80.0008C12.4 80.0008 7.7 77.9008 4.6 73.6008C1.5 69.3008 0 63.3008 0 55.4008C0 47.5008 1.5 41.5008 4.6 37.3008C7.7 33.0008 12.4 30.8008 18.8 30.8008C21.3 30.8008 23.4 31.1008 25.3 31.8008C27.2 32.4008 28.8 33.3008 30.2 34.5008C31.6 35.7008 32.7 37.1008 33.5 38.8008C34.4 40.5008 35.1 42.4008 35.6 44.5008L26 46.8008C25.7 45.7008 25.4 44.6008 25 43.7008C24.6 42.7008 24.2 41.9008 23.6 41.2008C23.1 40.5008 22.3 40.0008 21.5 39.6008C20.7 39.2008 19.7 39.0008 18.5 39.0008C15.7 39.0008 13.7 40.1008 12.6 42.3008C11.5 44.4008 10.9 47.4008 10.9 51.2008V59.5008C10.9 63.3008 11.5 66.3008 12.6 68.5008C13.8 70.6008 15.8 71.7008 18.5 71.7008C20.9 71.7008 22.6 71.0008 23.6 69.5008C24.7 68.0008 25.5 66.2008 26 63.9008L35.6 66.2008C35.1 68.3008 34.4 70.2008 33.5 71.9008C32.6 73.6008 31.5 75.0008 30.2 76.3008C28.8 77.5008 27.2 78.4008 25.3 79.0008C23.4 79.7008 21.2 80.0008 18.8 80.0008Z" fill="#161518"></path><path d="M73.5 39.9992H66V48.1992C66 52.3992 65.8 55.9992 65.5 59.0992C65.2 62.0992 64.7 64.7992 64.1 66.8992C63.5 69.0992 62.8 70.8992 62.1 72.2992C61.3 73.6992 60.5 74.7992 59.6 75.6992C58.2 77.0992 56.7 78.0992 55 78.6992C53.4 79.2992 51.4 79.5992 49 79.5992H47V70.7992H51.7C52.4 69.9992 53.1 68.9992 53.6 67.7992C54.2 66.4992 54.7 64.8992 55.1 62.9992C55.5 61.0992 55.8 58.7992 56.1 56.1992C56.3 53.4992 56.4 50.3992 56.4 46.6992V31.6992H83.7V79.2992H73.5V39.9992Z" fill="#161518"></path><path d="M176.4 79.1992V31.6992H194.8C197.1 31.6992 199.2 32.0992 201 32.7992C202.8 33.4992 204.3 34.4992 205.6 35.7992C206.9 37.0992 207.8 38.6992 208.5 40.5992C209.1 42.4992 209.5 44.5992 209.5 46.8992C209.5 49.1992 209.2 51.2992 208.5 53.1992C207.9 55.0992 206.9 56.6992 205.6 57.9992C204.4 59.2992 202.8 60.2992 201 61.0992C199.2 61.7992 197.1 62.0992 194.8 62.0992H186.7V79.3992H176.4V79.1992ZM186.7 53.6992H192.2C194.6 53.6992 196.3 53.1992 197.2 52.2992C198.2 51.3992 198.6 49.8992 198.6 47.7992V45.7992C198.6 43.6992 198.1 42.1992 197.2 41.2992C196.3 40.3992 194.6 39.8992 192.2 39.8992H186.7V53.6992Z" fill="#161518"></path><path d="M249.7 57.9992L250.2 44.6992H249.6L240.7 69.1992L231.8 44.6992H231.2L231.7 57.9992V79.1992H223V31.6992H235L240.9 47.6992H241.4L247.3 31.6992H258.6V79.2992H249.7V57.9992Z" fill="#161518"></path></g><defs><clipPath id="clip0_12342_122"><rect width="258.6" height="102.2" fill="white"></rect></clipPath></defs></svg>