<?xml version="1.0"?> <svg xmlns="http://www.w3.org/2000/svg" width="1188" height="471" viewBox="0 0 1188 471" fill="none"><path d="M86.2094 368.456C56.9505 368.456 35.2152 358.646 21.0038 339.026C7.00125 319.197 0 291.333 0 255.432C0 219.531 7.00125 191.771 21.0038 172.151C35.2152 152.322 56.9505 142.407 86.2094 142.407C97.495 142.407 107.422 143.973 115.991 147.104C124.769 150.026 132.292 154.2 138.562 159.627C144.832 165.054 149.952 171.629 153.923 179.352C158.103 187.074 161.342 195.736 163.641 205.338L119.753 215.983C118.499 210.765 117.036 205.964 115.364 201.581C113.692 197.198 111.498 193.44 108.781 190.31C106.273 187.179 103.033 184.778 99.0625 183.109C95.3006 181.23 90.7028 180.291 85.269 180.291C72.5204 180.291 63.4292 185.3 57.9954 195.319C52.7706 205.129 50.1582 218.801 50.1582 236.333V274.53C50.1582 292.063 52.7706 305.839 57.9954 315.858C63.4292 325.668 72.5204 330.573 85.269 330.573C96.1366 330.573 103.974 327.233 108.781 320.554C113.796 313.875 117.454 305.317 119.753 294.881L163.641 305.526C161.342 315.127 158.103 323.789 153.923 331.512C149.952 339.235 144.832 345.914 138.562 351.55C132.292 356.977 124.769 361.151 115.991 364.073C107.422 366.995 97.495 368.456 86.2094 368.456Z" fill="white"></path><path d="M337.819 184.674H303.335V222.245C303.335 241.447 302.603 258.145 301.14 272.339C299.677 286.323 297.587 298.325 294.871 308.344C292.154 318.362 289.019 326.607 285.466 333.078C281.913 339.548 278.151 344.766 274.18 348.732C267.702 355.202 260.7 359.794 253.177 362.508C245.862 365.221 236.666 366.578 225.59 366.578H216.498V326.19H238.129C241.473 322.641 244.399 318.049 246.907 312.414C249.624 306.569 251.923 299.264 253.803 290.498C255.684 281.731 257.147 271.295 258.192 259.189C259.237 246.874 259.76 232.368 259.76 215.67V146.164H385.155V364.699H337.819V184.674Z" fill="white"></path><path d="M810.368 364.699V146.164H895.01C905.669 146.164 915.178 147.834 923.538 151.174C931.898 154.305 938.899 158.897 944.542 164.95C950.393 171.003 954.782 178.308 957.708 186.866C960.634 195.423 962.097 205.025 962.097 215.67C962.097 226.315 960.634 235.916 957.708 244.474C954.782 253.031 950.393 260.337 944.542 266.39C938.899 272.443 931.898 277.139 923.538 280.479C915.178 283.61 905.669 285.175 895.01 285.175H857.705V364.699H810.368ZM857.705 247.292H883.098C894.174 247.292 901.803 245.204 905.983 241.03C910.371 236.855 912.566 229.967 912.566 220.366V210.973C912.566 201.372 910.371 194.484 905.983 190.31C901.803 186.135 894.174 184.048 883.098 184.048H857.705V247.292Z" fill="white"></path><path d="M1147.25 267.329L1149.75 206.277H1146.93L1106.18 318.676L1065.43 206.277H1062.6L1065.11 267.329V364.699H1024.36V146.164H1079.85L1106.81 219.74H1109.31L1136.27 146.164H1188V364.699H1147.25V267.329Z" fill="white"></path><path fill-rule="evenodd" clip-rule="evenodd" d="M739.521 0.734375L457.381 24.2159V470.366L739.521 446.884V0.734375ZM529.483 146.164V364.699H669.299V326.19H576.506V273.278H666.164V234.768H576.506V184.674H669.299V146.164H529.483ZM545.157 120.804C548.919 124.561 555.502 126.44 564.907 126.44C574.312 126.44 580.895 124.561 584.657 120.804C588.419 116.839 590.299 112.142 590.299 106.715V98.5751C590.299 93.1482 588.419 88.5563 584.657 84.7992C580.895 81.0422 574.312 79.1637 564.907 79.1637C555.502 79.1637 548.919 81.0422 545.157 84.7992C541.604 88.5563 539.828 93.1482 539.828 98.5751V106.715C539.828 112.142 541.604 116.839 545.157 120.804ZM614.125 120.804C617.887 124.561 624.47 126.44 633.874 126.44C643.279 126.44 649.758 124.561 653.311 120.804C657.073 116.839 658.954 112.142 658.954 106.715V98.5751C658.954 93.1482 657.073 88.5563 653.311 84.7992C649.758 81.0422 643.279 79.1637 633.874 79.1637C624.47 79.1637 617.887 81.0422 614.125 84.7992C610.363 88.5563 608.482 93.1482 608.482 98.5751V106.715C608.482 112.142 610.363 116.839 614.125 120.804Z" fill="white"></path></svg>